<svg width="23" height="16" viewBox="0 0 23 16" fill="none" xmlns="http://www.w3.org/2000/svg">
<path d="M22.2771 13.1698C21.9862 12.5832 21.1758 12.3042 20.4693 12.5487L19.704 12.8132L18.3637 9.88291C20.0226 8.87642 20.6079 6.9986 19.5585 5.48886L16.5594 1.16095C16.2824 0.761233 15.6902 0.594444 15.1742 0.76986L11.2157 2.13294L7.25733 0.76986C6.74131 0.591568 6.14911 0.761233 5.87206 1.16095L2.87294 5.48886C1.82706 6.9986 2.40888 8.87642 4.06774 9.88003L2.72749 12.8104L1.96213 12.5458C1.25564 12.3014 0.44872 12.5803 0.15435 13.1669C0.0954764 13.2848 0.161277 13.42 0.303267 13.4689L5.924 15.4071C6.06599 15.456 6.2253 15.4013 6.28417 15.2834C6.57508 14.6968 6.24262 14.0239 5.53613 13.7795L4.77077 13.5149L6.13526 10.5357C6.28764 10.5501 6.44002 10.5731 6.58893 10.5731C8.3794 10.5731 10.0313 9.62122 10.5162 8.12011L11.2157 5.95185L11.9153 8.12011C12.4001 9.62122 14.0521 10.5731 15.8425 10.5731C15.9915 10.5731 16.1438 10.5501 16.2962 10.5357L17.6572 13.5149L16.8919 13.7795C16.1854 14.0239 15.8495 14.6968 16.1438 15.2834C16.2027 15.4013 16.3655 15.456 16.504 15.4071L22.1282 13.4689C22.2667 13.42 22.336 13.2877 22.2771 13.1698ZM9.68848 5.36233L5.80626 4.02514L7.07032 2.20195L10.343 3.32922L9.68848 5.36233ZM12.743 5.36233L12.0885 3.32922L15.3612 2.20195L16.6252 4.02514L12.743 5.36233Z" fill="white"/>
</svg>
