<svg width="24" height="17" viewBox="0 0 24 17" fill="none" xmlns="http://www.w3.org/2000/svg">
<path d="M5.58046 16.7431C4.30293 16.7431 3.21411 16.3545 2.31399 15.5774C1.41387 14.8004 0.963507 13.861 0.962891 12.7594C0.962276 11.6578 1.41264 10.7185 2.31399 9.9414C3.21534 9.16433 4.30416 8.77579 5.58046 8.77579C6.85676 8.77579 7.94589 9.16433 8.84785 9.9414C9.74982 10.7185 10.1999 11.6578 10.198 12.7594C10.1962 13.861 9.74582 14.8006 8.84693 15.5782C7.94804 16.3559 6.85922 16.7441 5.58046 16.7431ZM5.58046 15.1496C6.35006 15.1496 7.00421 14.9172 7.54293 14.4525C8.08165 13.9877 8.351 13.4234 8.351 12.7594C8.351 12.0955 8.08165 11.5311 7.54293 11.0664C7.00421 10.6016 6.35006 10.3692 5.58046 10.3692C4.81087 10.3692 4.15671 10.6016 3.61799 11.0664C3.07928 11.5311 2.80992 12.0955 2.80992 12.7594C2.80992 13.4234 3.07928 13.9877 3.61799 14.4525C4.15671 14.9172 4.81087 15.1496 5.58046 15.1496ZM11.1215 14.3529V10.3692L8.1663 8.13841C7.9816 7.99234 7.84307 7.82317 7.75072 7.6309C7.65837 7.43862 7.61219 7.23599 7.61219 7.02299C7.61219 6.81 7.66237 6.60763 7.76272 6.41589C7.86308 6.22414 7.99761 6.0547 8.1663 5.90758L10.7521 3.67674C10.9368 3.5174 11.1486 3.39789 11.3875 3.31821C11.6264 3.23854 11.8764 3.19871 12.1374 3.19871C12.3985 3.19871 12.6487 3.23854 12.8882 3.31821C13.1277 3.39789 13.3392 3.5174 13.5227 3.67674L15.2774 5.19052C15.7083 5.56233 16.2009 5.85446 16.755 6.06692C17.3091 6.27938 17.894 6.38561 18.5097 6.38561V7.97907C17.6323 7.97907 16.7972 7.833 16.0042 7.54087C15.2112 7.24873 14.5071 6.83709 13.8921 6.30594L13.1533 5.66856L10.9368 7.5807L12.9686 9.41317V14.3529H11.1215ZM15.2774 3.59707C14.7694 3.59707 14.3348 3.44118 13.9734 3.12939C13.612 2.8176 13.4309 2.44235 13.4303 2.00362C13.4297 1.56488 13.6107 1.18989 13.9734 0.878637C14.336 0.567382 14.7707 0.411224 15.2774 0.410162C15.7841 0.409099 16.219 0.565258 16.5823 0.878637C16.9455 1.19202 17.1262 1.56701 17.1244 2.00362C17.1225 2.44022 16.9418 2.81548 16.5823 3.12939C16.2227 3.4433 15.7878 3.59919 15.2774 3.59707ZM18.5097 16.7431C17.2321 16.7431 16.1433 16.3545 15.2432 15.5774C14.3431 14.8004 13.8927 13.861 13.8921 12.7594C13.8915 11.6578 14.3418 10.7185 15.2432 9.9414C16.1445 9.16433 17.2334 8.77579 18.5097 8.77579C19.786 8.77579 20.8751 9.16433 21.7771 9.9414C22.679 10.7185 23.1291 11.6578 23.1272 12.7594C23.1254 13.861 22.675 14.8006 21.7761 15.5782C20.8772 16.3559 19.7884 16.7441 18.5097 16.7431ZM18.5097 15.1496C19.2793 15.1496 19.9334 14.9172 20.4721 14.4525C21.0108 13.9877 21.2802 13.4234 21.2802 12.7594C21.2802 12.0955 21.0108 11.5311 20.4721 11.0664C19.9334 10.6016 19.2793 10.3692 18.5097 10.3692C17.7401 10.3692 17.0859 10.6016 16.5472 11.0664C16.0085 11.5311 15.7391 12.0955 15.7391 12.7594C15.7391 13.4234 16.0085 13.9877 16.5472 14.4525C17.0859 14.9172 17.7401 15.1496 18.5097 15.1496Z" fill="#C13333"/>
</svg>
