<svg width="20" height="17" viewBox="0 0 20 17" fill="none" xmlns="http://www.w3.org/2000/svg">
<path d="M13.3533 7.74121H13.9327C14.3422 7.74218 14.748 7.67305 15.1264 7.53781C15.5047 7.40257 15.8483 7.20392 16.1371 6.95335L19.326 4.18037L18.4603 3.42746L15.2039 6.23674L14.5272 5.65291L17.7835 2.84329L16.8874 2.0934L13.6432 4.89193L12.9684 4.30809L16.2247 1.49847L15.352 0.751953L12.1377 3.50309C11.8473 3.75229 11.617 4.04872 11.4603 4.37521C11.3035 4.70171 11.2234 5.05179 11.2245 5.40519V5.90466L9.54412 7.35434L1.87158 0.751953C0.146399 2.59624 1.16522 5.98566 3.10742 7.66155L6.43856 10.5354C7.47297 11.4278 7.67829 11.5074 8.85179 11.1001C9.10464 11.0123 9.19659 11.0221 9.4323 11.2251L9.93879 11.6328C10.0529 11.7336 10.0557 11.7632 10.0557 11.9561V12.1424C10.0557 12.8509 10.5809 13.2583 10.9268 13.5621L14.9624 16.8857L17.7676 14.4656L11.6729 9.1909L13.3533 7.74121Z" fill="#C13333"/>
<path d="M8.86013 12.1327C7.69832 12.338 6.98573 12.5273 5.62327 11.3519C5.60146 11.333 5.57886 11.3149 5.55704 11.2961L4.79731 10.6406L0.625 14.1968L3.74186 16.8857L9.35221 12.0456L8.86013 12.1327Z" fill="#C13333"/>
</svg>
