<svg width="17" height="14" viewBox="0 0 17 14" fill="none" xmlns="http://www.w3.org/2000/svg">
<path d="M8.54747 13.9158C7.32597 13.7867 6.22268 13.514 5.2376 13.0976C4.25252 12.6806 3.40504 12.1306 2.69517 11.4475C1.98529 10.7645 1.42841 9.96296 1.02453 9.04301C0.620646 8.12306 0.383303 7.10245 0.3125 5.98119C1.59126 6.01465 2.73857 6.22393 3.75444 6.60901C4.7703 6.99409 5.63194 7.52843 6.33935 8.21202C7.04676 8.89562 7.59164 9.7189 7.97397 10.6819C8.35631 11.6449 8.54747 12.7234 8.54747 13.9158ZM8.22794 9.1179C7.90963 8.65261 7.50852 8.19184 7.0246 7.73558C6.54068 7.27932 6.04075 6.89583 5.52481 6.58511C5.56976 6.07839 5.66734 5.55175 5.81757 5.0052C5.96779 4.45864 6.16173 3.92484 6.39938 3.40378C6.6358 2.88166 6.90885 2.38078 7.21854 1.90115C7.52761 1.42099 7.86407 0.992352 8.22794 0.615234C8.59119 0.992352 8.92766 1.41834 9.23734 1.89318C9.54702 2.36803 9.82038 2.8713 10.0574 3.40298C10.2945 3.93466 10.4909 4.47378 10.6466 5.02034C10.8024 5.56689 10.8972 6.09857 10.9311 6.61538C10.3554 6.93301 9.82285 7.32022 9.33338 7.77701C8.84392 8.2338 8.47544 8.68076 8.22794 9.1179ZM9.47099 13.7031C9.4636 13.1108 9.39772 12.4963 9.27336 11.8594C9.14837 11.2221 8.95321 10.5926 8.68785 9.9712C9.29306 8.83453 10.2778 7.88377 11.6422 7.11892C13.0065 6.35512 14.5069 5.97588 16.1434 5.98119C16.0406 7.94645 15.4347 9.56912 14.3259 10.8492C13.2171 12.1293 11.5988 13.0806 9.47099 13.7031Z" fill="#C13333"/>
</svg>
